<?xml version="1.0" standalone="no"?>
<!DOCTYPE svg PUBLIC "-//W3C//DTD SVG 20010904//EN"
 "http://www.w3.org/TR/2001/REC-SVG-20010904/DTD/svg10.dtd">
<svg version="1.0" xmlns="http://www.w3.org/2000/svg"
 width="640.000000pt" height="640.000000pt" viewBox="0 0 640.000000 640.000000"
 preserveAspectRatio="xMidYMid meet">

<g transform="translate(0.000000,640.000000) scale(0.100000,-0.100000)"
fill="#000000" stroke="none">
<path d="M3190 6004 c-653 -79 -1111 -275 -1488 -638 -343 -331 -560 -773
-636 -1296 -22 -151 -39 -451 -32 -550 23 -302 131 -742 224 -915 37 -68 97
-125 113 -108 13 14 267 489 353 660 127 254 125 244 125 424 0 309 54 566
172 816 160 344 386 582 693 733 354 175 748 183 1144 24 242 -98 408 -214
587 -410 49 -55 110 -120 136 -146 l47 -48 421 0 c272 0 429 4 442 10 35 19
22 61 -68 218 -265 458 -604 784 -1038 997 -326 160 -598 225 -955 230 -113 2
-221 1 -240 -1z"/>
<path d="M3223 5089 c-76 -126 -601 -1161 -917 -1809 -41 -85 -117 -236 -169
-335 -51 -99 -155 -301 -232 -450 -76 -148 -194 -378 -262 -510 -166 -322
-684 -1359 -708 -1415 -10 -25 -26 -63 -36 -85 -33 -78 -50 -75 391 -75 213 0
396 3 405 6 9 4 122 219 259 493 242 485 325 644 351 670 11 11 36 4 162 -46
195 -79 380 -130 593 -164 130 -21 497 -18 635 5 334 55 725 198 943 344 197
133 406 328 581 541 114 138 149 197 131 215 -8 8 -156 12 -508 14 l-497 4
-79 -57 c-252 -181 -505 -268 -821 -282 -229 -9 -433 22 -631 98 -162 63 -169
7 58 461 271 541 371 731 386 736 6 2 12 -1 12 -8 0 -16 229 -472 247 -492 15
-17 47 -18 412 -18 218 0 402 4 410 9 12 8 12 14 1 42 -24 56 -922 1847 -989
1970 -34 63 -72 128 -85 144 l-23 28 -20 -34z"/>
<path d="M4248 1153 c-10 -2 -18 -14 -18 -25 0 -23 333 -694 356 -718 12 -13
73 -15 396 -18 210 -2 392 -1 405 3 14 3 23 13 23 25 0 22 -333 695 -358 723
-14 16 -45 17 -401 16 -212 -1 -394 -3 -403 -6z"/>
</g>
</svg>
